<svg width="21" height="21" viewBox="0 0 21 21" fill="#000000" xmlns="http://www.w3.org/2000/svg">
<path d="M13.9723 1.90257C13.9322 2.15294 13.9122 2.4033 13.9122 2.65367C13.9122 4.90697 15.7349 6.72864 17.9782 6.72864C18.2285 6.72864 18.4689 6.6996 18.7192 6.65954V14.7404C18.7192 18.1364 16.7163 20.1493 13.3113 20.1493H5.91149C2.5055 20.1493 0.502563 18.1364 0.502563 14.7404V7.33052C0.502563 3.92553 2.5055 1.90257 5.91149 1.90257H13.9723ZM14.1736 7.99149C13.9022 7.96145 13.6328 8.08162 13.4716 8.30194L11.049 11.4365L8.27395 9.25334C8.1037 9.12315 7.9034 9.07207 7.70311 9.0931C7.50382 9.12315 7.32355 9.23231 7.20238 9.39254L4.23904 13.2492L4.17795 13.3393C4.0077 13.6588 4.08782 14.0694 4.38826 14.2907C4.52846 14.3808 4.67868 14.4409 4.84893 14.4409C5.08027 14.451 5.29959 14.3298 5.4398 14.1405L7.95348 10.9048L10.8077 13.0489L10.8978 13.108C11.2183 13.2782 11.6188 13.1991 11.8492 12.8977L14.7434 9.16321L14.7034 9.18324C14.8636 8.96291 14.8936 8.6825 14.7835 8.43214C14.6743 8.18177 14.433 8.01152 14.1736 7.99149ZM18.1185 0.119659C19.4504 0.119659 20.532 1.20124 20.532 2.5332C20.532 3.86515 19.4504 4.94673 18.1185 4.94673C16.7865 4.94673 15.7049 3.86515 15.7049 2.5332C15.7049 1.20124 16.7865 0.119659 18.1185 0.119659Z" fill="#373B5C" fill-opacity="1"/>
</svg>
