<svg width="21" height="22" viewBox="0 0 21 22" fill="none;" xmlns="http://www.w3.org/2000/svg">
<path fill-rule="evenodd" clip-rule="evenodd" d="M14.3167 0.119263C14.7313 0.119263 15.0678 0.455756 15.0678 
0.870363L15.0682 1.71942C16.5305 1.81967 17.7449 2.32053 18.6044 3.18185C19.5428 4.12423 20.0365 5.47921 20.0316 
7.1046V16.241C20.0316 19.5779 17.9124 21.6509 14.5024 21.6509H6.03203C2.62203 21.6509 0.50293 19.5488 0.50293 
16.1649V7.10259C0.50293 3.95517 2.39275 1.93486 5.4749 1.71976L5.47551 0.870363C5.47551 0.455756 5.81201 0.119263
 6.22661 0.119263C6.64122 0.119263 6.97771 0.455756 6.97771 0.870363L6.97741 1.70058H13.5651L13.5656 0.870363C13.5656 
 0.455756 13.9021 0.119263 14.3167 0.119263ZM18.5293 9.03633H2.00513V16.1649C2.00513 18.7346 3.43523 20.1487 6.03203
  20.1487H14.5024C17.0992 20.1487 18.5294 18.7607 18.5294 16.241L18.5293 9.03633ZM14.725 15.3379C15.1396 15.3379 15.4761 
  15.6743 15.4761 16.089C15.4761 16.5036 15.1396 16.8401 14.725 16.8401C14.3104 16.8401 13.9699 16.5036 13.9699 16.089C13.9699 
  15.6743 14.3013 15.3379 14.7159 15.3379H14.725ZM10.281 15.3379C10.6956 15.3379 11.0321 15.6743 11.0321 16.089C11.0321 16.5036 10.6956 16.8401 10.281 16.8401C9.86635 16.8401 9.52585 16.5036 9.52585 16.089C9.52585 15.6743 9.85733 15.3379 10.2719 15.3379H10.281ZM5.82763 15.3379C6.24224 15.3379 6.57873 15.6743 6.57873 16.089C6.57873 16.5036 6.24224 16.8401 5.82763 16.8401C5.41302 16.8401 5.07152 16.5036 5.07152 16.089C5.07152 15.6743 5.40401 15.3379 5.81862 15.3379H5.82763ZM14.725 11.4455C15.1396 11.4455 15.4761 11.7819 15.4761 12.1966C15.4761 12.6112 15.1396 12.9477 14.725 12.9477C14.3104 12.9477 13.9699 12.6112 13.9699 12.1966C13.9699 11.7819 14.3013 11.4455 14.7159 11.4455H14.725ZM10.281 11.4455C10.6956 11.4455 11.0321 11.7819 11.0321 12.1966C11.0321 12.6112 10.6956 12.9477 10.281 12.9477C9.86635 12.9477 9.52585 12.6112 9.52585 12.1966C9.52585 11.7819 9.85733 11.4455 10.2719 11.4455H10.281ZM5.82763 11.4455C6.24224 11.4455 6.57873 11.7819 6.57873 12.1966C6.57873 12.6112 6.24224 12.9477 5.82763 12.9477C5.41302 12.9477 5.07152 12.6112 5.07152 12.1966C5.07152 11.7819 5.40401 11.4455 5.81862 11.4455H5.82763ZM13.5651 3.20278H6.97741L6.97771 4.16619C6.97771 4.5808 6.64122 4.91729 6.22661 4.91729C5.81201 4.91729 5.47551 4.5808 5.47551 4.16619L5.47498 3.22552C3.23146 3.41398 2.00513 4.77394 2.00513 7.10259V7.53412H18.5293L18.5294 7.10259C18.5333 5.86578 18.2009 4.90437 17.5409 4.2434C16.9616 3.66236 16.1147 3.31535 15.0686 3.226L15.0678 4.16619C15.0678 4.5808 14.7313 4.91729 14.3167 4.91729C13.9021 4.91729 13.5656 4.5808 13.5656 4.16619L13.5651 3.20278Z" fill="#373B5C" fill-opacity="1"/>
</svg>
