<svg width="214" height="192" viewBox="0 0 214 192" fill="none" xmlns="http://www.w3.org/2000/svg">
<path d="M0 186.894C34.6775 188.12 68.9221 179.925 97.8604 163.473C126.519 147.088 143.023 120.027 154.898 92.2789L178.927 99.3595C178.927 99.3595 163.692 162.044 122.053 191.009H0V186.894Z" fill="url(#paint0_linear_9_109)"/>
<g opacity="0.6">
<path opacity="0.6" d="M0 186.894C34.6775 188.12 68.9221 179.925 97.8604 163.473C126.519 147.088 143.023 120.027 154.898 92.2789L178.927 99.3595C178.927 99.3595 163.692 164.92 122.053 191.009H0V186.894Z" fill="white"/>
</g>
<path d="M152.18 99.6262C152.36 99.6805 152.286 100.282 151.98 101.381C151.828 101.928 151.617 102.601 151.354 103.393L150.911 104.663C150.743 105.115 150.543 105.567 150.332 106.092C149.911 107.096 149.437 108.212 148.9 109.429C148.363 110.645 147.673 111.929 146.972 113.322C146.272 114.714 145.392 116.17 144.539 117.725C143.686 119.281 142.622 120.868 141.553 122.55L140.737 123.825C140.437 124.245 140.142 124.67 139.837 125.1L137.978 127.727L137.499 128.401L136.972 129.065L135.919 130.422C135.208 131.326 134.513 132.257 133.744 133.175C132.164 134.984 130.631 136.914 128.841 138.768C127.962 139.704 127.098 140.681 126.155 141.617C125.213 142.553 124.254 143.498 123.28 144.456L122.548 145.18L121.779 145.88L120.247 147.282L118.667 148.711C118.14 149.19 117.577 149.615 117.024 150.108C115.907 151.035 114.802 151.989 113.643 152.916L110.073 155.665C105.033 159.408 99.7155 162.865 94.153 166.014C83.3842 172.049 71.8242 176.972 59.7126 180.682L55.5734 181.907L51.4922 182.97L49.491 183.485L47.5004 183.937L43.614 184.792C42.3344 185.045 41.0652 185.244 39.8277 185.493C38.5902 185.741 37.3737 185.945 36.1414 186.112L32.6078 186.614C32.0286 186.691 31.4598 186.786 30.8911 186.849L29.2112 187.021C26.9889 187.242 24.8824 187.473 22.8918 187.581C20.9012 187.69 19.0002 187.848 17.2255 187.844C15.4508 187.839 13.8078 187.911 12.2911 187.893C10.7745 187.875 9.3895 187.794 8.14669 187.74C7.52529 187.708 6.94075 187.69 6.39307 187.649L4.8501 187.495C3.89693 187.396 3.09648 187.297 2.44874 187.202C1.15328 187.016 0.479213 186.835 0.489746 186.673C0.500278 186.51 1.19541 186.374 2.49087 186.257C3.14387 186.198 3.94432 186.144 4.88696 186.094L6.40887 186.031L8.14142 185.904C9.36316 185.82 10.7166 185.734 12.2016 185.646C13.6814 185.533 15.2876 185.366 17.0096 185.221C18.7316 185.077 20.5642 184.823 22.5074 184.602C24.4506 184.38 26.5097 184.019 28.6161 183.72L30.2433 183.471C30.77 183.386 31.3387 183.272 31.8916 183.168L35.3041 182.535C36.4679 182.341 37.6317 182.056 38.8271 181.799L42.4766 180.994L46.2102 180.049L48.1218 179.565L50.044 179.013L53.9672 177.887L57.9484 176.608C69.5746 172.785 80.6956 167.913 91.125 162.076C96.4923 159.038 101.645 155.728 106.555 152.165L110.046 149.552C111.178 148.67 112.263 147.743 113.364 146.884C113.89 146.432 114.464 146.016 114.981 145.559C115.497 145.103 116.034 144.655 116.529 144.203L118.067 142.846L118.83 142.186L119.557 141.504L122.422 138.813C123.364 137.909 124.228 137.005 125.113 136.101C126.914 134.351 128.483 132.529 130.084 130.819C130.868 129.956 131.585 129.065 132.317 128.215L133.401 126.949L133.928 126.321L134.455 125.688L136.408 123.205L137.356 122.007L138.23 120.805C139.378 119.218 140.527 117.73 141.48 116.256C142.433 114.782 143.439 113.439 144.229 112.114C145.019 110.79 145.808 109.582 146.53 108.461C147.251 107.34 147.81 106.273 148.373 105.337C148.657 104.885 148.9 104.432 149.173 104.012C149.447 103.591 149.637 103.203 149.842 102.836C150.264 102.108 150.637 101.48 150.953 101.028C151.58 100.06 152.001 99.572 152.18 99.6262Z" fill="url(#paint1_linear_9_109)"/>
<path d="M153.507 109.27C151.043 111.66 149.153 114.444 147.946 117.463C147.778 117.895 147.772 118.361 147.929 118.795C148.087 119.23 148.399 119.61 148.823 119.884C149.247 120.157 149.76 120.309 150.29 120.317C150.82 120.326 151.339 120.191 151.775 119.932L151.828 119.9C150.11 123.516 148.669 127.223 147.515 131C147.351 131.53 147.381 132.09 147.601 132.604C147.821 133.119 148.221 133.563 148.745 133.875C149.269 134.188 149.893 134.355 150.531 134.352C151.169 134.35 151.791 134.179 152.312 133.862C161.7 128.149 168.356 119.705 171.044 110.098L153.507 109.27Z" fill="#082567" fill-opacity="0.2"/>
<g opacity="0.3">
<path opacity="0.3" d="M154.345 113.15C153.891 113.537 153.533 113.998 153.292 114.506C153.176 114.76 153.149 115.038 153.213 115.305C153.278 115.573 153.431 115.818 153.655 116.012C154.376 116.536 155.614 116.22 156.288 116.776C156.962 117.332 156.583 118.408 156.104 119.168L154.587 121.578C154.218 122.165 153.855 122.934 154.334 123.459C154.814 123.983 155.946 123.838 156.72 123.504C158.505 122.707 160.038 121.55 161.187 120.133C162.336 118.715 163.068 117.079 163.318 115.365L154.345 113.15Z" fill="#272830"/>
</g>
<path d="M196.105 80.8171L196.247 80.9934C200.284 86.1755 202.914 92.0694 203.944 98.2405C204.974 104.412 204.377 110.703 202.198 116.649L199.433 124.205L185.768 109.071L196.105 80.8171Z" fill="#082567" fill-opacity="0.2"/>
<path d="M196.105 80.8171L196.058 80.9573L195.91 81.3687C195.779 81.7304 195.595 82.273 195.352 82.9331C194.857 84.2895 194.141 86.288 193.246 88.7884C191.434 93.7619 188.885 100.829 185.873 109.099V108.999L198.333 122.789L199.539 124.146L199.302 124.187C199.857 122.679 200.401 121.195 200.934 119.733C201.461 118.268 202.024 116.83 202.472 115.406C203.37 112.672 203.942 109.866 204.178 107.032C204.396 104.471 204.329 101.897 203.978 99.3459C203.852 98.1432 203.578 97.0038 203.362 95.9051C203.146 94.8064 202.835 93.7619 202.477 92.7898C201.46 89.6775 200.019 86.6788 198.185 83.8555C197.575 82.8427 196.99 82.1147 196.637 81.5948L196.084 80.8126C196.084 80.8126 196.137 80.8668 196.248 80.9979L196.679 81.5677C197.048 82.0786 197.654 82.802 198.259 83.8284C200.123 86.6408 201.586 89.636 202.614 92.7491C202.983 93.7258 203.22 94.7838 203.525 95.8734C203.746 96.9766 204.026 98.1341 204.157 99.3278C204.522 101.887 204.598 104.47 204.384 107.041C204.153 109.891 203.585 112.714 202.688 115.465C202.24 116.903 201.672 118.331 201.15 119.796C200.629 121.261 200.097 122.744 199.523 124.25L199.444 124.467L199.281 124.286C198.902 123.866 198.486 123.409 198.075 122.93L185.626 109.13L185.589 109.085V109.031L193.119 88.6618C194.041 86.184 194.768 84.2172 195.273 82.8608C195.521 82.1961 195.716 81.6852 195.847 81.328L196.079 80.9301C196.084 80.8919 196.093 80.8541 196.105 80.8171Z" fill="#263238" fill-opacity="0.2"/>
<path d="M146.198 67.3659L145.961 67.4427C139.292 69.6816 133.292 73.1774 128.406 77.6724C123.52 82.1673 119.871 87.5467 117.73 93.4138L115.007 100.865L136.003 95.2314L146.198 67.3659Z" fill="#082567" fill-opacity="0.2"/>
<path d="M146.198 67.3659C146.198 67.3659 146.198 67.4066 146.156 67.4925C146.114 67.5784 146.077 67.7185 146.019 67.8813C145.893 68.234 145.708 68.7449 145.493 69.4005L143.418 75.1292L136.135 95.254V95.3128H136.071L116.934 100.458L115.075 100.956L114.828 101.023L114.907 100.806L116.487 96.416C117.013 94.9737 117.508 93.5449 118.067 92.1659C119.149 89.5046 120.543 86.9444 122.227 84.5247C123.747 82.3397 125.511 80.2864 127.493 78.3936C128.393 77.4893 129.368 76.689 130.273 75.9023C131.179 75.1156 132.122 74.4283 133.059 73.8134C135.939 71.7981 139.092 70.0887 142.449 68.7223C143.618 68.2069 144.555 67.9175 145.213 67.6824L145.94 67.4292L146.198 67.3568L145.234 67.7231C144.608 67.9717 143.655 68.2747 142.496 68.7992C139.168 70.2007 136.042 71.9305 133.18 73.9536C132.253 74.573 131.369 75.31 130.416 76.047C129.462 76.784 128.551 77.625 127.661 78.5338C125.7 80.4246 123.956 82.4732 122.453 84.6513C120.789 87.0541 119.409 89.5943 118.335 92.2337C117.761 93.5901 117.282 95.0415 116.755 96.4793C116.229 97.9171 115.702 99.3911 115.175 100.874L115.007 100.725L116.866 100.228L136.008 95.1003L135.924 95.1726C138.931 87.0341 141.501 80.0937 143.297 75.1789C144.208 72.7192 144.934 70.766 145.435 69.4186C145.682 68.7539 145.877 68.2385 146.009 67.8813C146.072 67.7095 146.124 67.5784 146.161 67.4789C146.17 67.4405 146.183 67.4027 146.198 67.3659Z" fill="#263238" fill-opacity="0.2"/>
<path d="M198.185 0.109737C194.236 -0.952797 183.767 5.85646 171.66 18.6837C159.743 31.3166 154.808 43.8183 154.808 43.8183L131.748 106.86L151.096 112.078L162.307 115.099L181.655 120.316L202.583 63.1112C204.636 57.5228 206.063 51.7786 206.843 45.9569C207.644 40.1211 207.9 34.2395 207.606 28.3686C206.648 11.9468 202.161 1.17679 198.206 0.109737" fill="#F5F5F5"/>
<path d="M198.185 0.109731L198.359 0.163987L198.575 0.23633L198.854 0.371974C199.456 0.710297 199.983 1.13917 200.408 1.63797C201.571 2.92658 202.82 5.11042 203.91 8.06743C205.192 11.6851 206.117 15.3892 206.674 19.1404C207.027 21.3378 207.312 23.698 207.512 26.2164C207.712 28.7348 207.833 31.4025 207.796 34.2103C207.759 37.0181 207.585 39.9615 207.269 43.0271C206.954 46.2208 206.451 49.3988 205.763 52.5492C205.014 55.9353 204.047 59.2833 202.867 62.5777C201.628 65.9718 200.352 69.4698 199.038 73.0719C193.772 87.4591 187.953 103.406 181.76 120.352L181.723 120.465L181.592 120.429L156.641 113.701L131.685 106.969L131.553 106.937L131.595 106.824C137.799 89.878 143.639 73.931 148.91 59.5438C150.227 55.9448 151.506 52.4482 152.749 49.0541C153.371 47.3601 153.983 45.6902 154.587 44.0444C155.235 42.4076 156.009 40.8477 156.799 39.3285C159.753 33.7215 163.318 28.3669 167.447 23.3363C170.884 19.2531 174.622 15.3628 178.638 11.6891C181.622 8.90276 184.847 6.31369 188.285 3.9439C191.124 2.02681 193.551 0.806029 195.379 0.295109C196.054 0.0872944 196.768 -0.0123213 197.485 0.00121568L197.801 0.0238242L198.027 0.0690377L198.201 0.109731L198.022 0.0826014L197.801 0.0419085L197.485 0.0193018C196.767 0.0163963 196.053 0.123576 195.379 0.335802C193.588 0.855765 191.166 2.08559 188.327 4.01172C184.92 6.386 181.722 8.97327 178.759 11.7524C174.769 15.4381 171.056 19.3374 167.642 23.4267C163.53 28.453 159.981 33.8015 157.041 39.4009C156.256 40.9201 155.461 42.48 154.845 44.1032L153.013 49.1129C151.773 52.507 150.497 56.005 149.184 59.6071C143.918 73.9943 138.125 89.9458 131.901 106.897L131.811 106.747L156.746 113.484L181.697 120.217L181.523 120.294L198.833 73.0176L202.672 62.5325C203.848 59.2424 204.812 55.8989 205.558 52.5175C206.29 49.2531 206.753 46.0745 207.08 43.0225C207.406 39.9706 207.575 37.0226 207.606 34.2148C207.638 31.407 207.543 28.7484 207.343 26.2345C207.143 23.7206 206.869 21.3604 206.522 19.1675C205.978 15.4208 205.069 11.7198 203.804 8.1036C202.751 5.14659 201.503 2.96275 200.355 1.67414C199.938 1.17506 199.421 0.743379 198.828 0.399101L198.554 0.258938L198.343 0.186594L198.185 0.109731Z" fill="#263238" fill-opacity="0.2"/>
<path d="M193.171 60.962C204.2 55.8631 208.327 44.0531 202.388 34.5835C196.45 25.1139 182.694 21.5707 171.665 26.6696C160.636 31.7684 156.509 43.5785 162.448 53.0481C168.386 62.5177 182.142 66.0608 193.171 60.962Z" fill="white"/>
<path d="M200.192 34.581C200.063 34.5922 199.933 34.5808 199.809 34.5476C199.686 34.5144 199.571 34.46 199.473 34.3878C199.374 34.3155 199.294 34.2269 199.236 34.1272C199.179 34.0275 199.146 33.9189 199.139 33.8079C199.127 33.363 199.302 32.9294 199.634 32.5871C199.961 32.2464 200.238 31.8729 200.46 31.4748C200.617 31.0949 200.628 30.6818 200.492 30.2961C200.356 29.9104 200.079 29.5724 199.702 29.3317C199.955 29.2367 200.182 29.099 200.371 28.9267C200.56 28.7545 200.707 28.5512 200.802 28.3292C200.898 28.1071 200.94 27.8708 200.926 27.6344C200.913 27.398 200.844 27.1664 200.724 26.9534C200.428 26.5851 200.093 26.2415 199.723 25.927C199.536 25.7285 199.372 25.515 199.233 25.2895C199.576 25.4673 199.958 25.5813 200.355 25.6241C200.679 25.6488 201.004 25.6029 201.302 25.4907C201.599 25.3784 201.858 25.2035 202.056 24.9821C202.247 24.7566 202.361 24.4896 202.384 24.2115C202.407 23.9334 202.339 23.6552 202.188 23.4086C202.03 23.1645 201.789 22.9679 201.497 22.8457C201.205 22.7236 200.876 22.6817 200.555 22.7259C199.943 22.8804 199.403 23.1969 199.012 23.6302L198.612 24.0054C198.17 22.9384 197.78 21.8578 196.721 21.2383C195.763 20.6777 194.515 20.6777 193.435 20.334C192.651 20.0673 191.971 19.6106 191.197 19.3167C190.423 19.0228 189.454 18.9279 188.78 19.3619C188.38 19.6151 188.138 20.0175 187.727 20.2662C186.9 20.7862 185.62 20.542 184.873 21.1434C184.267 21.6362 184.288 22.4682 183.877 23.0876C183.467 23.707 182.54 24.1049 181.771 24.5073C181.002 24.9097 180.223 25.5427 180.291 26.3159C180.349 26.9941 181.055 27.5457 181.102 28.2284C181.049 28.7245 180.889 29.2076 180.628 29.6527C180.444 30.1048 180.46 30.7514 180.96 31.0091L186.595 34.0566C188.438 35.3678 190.344 36.7061 192.63 37.321C194.915 37.9359 197.701 37.6511 199.26 36.0912C198.93 35.988 198.659 35.7811 198.501 35.5125C198.847 35.4767 199.178 35.3743 199.471 35.213C199.764 35.0517 200.01 34.8357 200.192 34.581Z" fill="#263238" fill-opacity="0.2"/>
<path d="M194.552 34.8749C195.584 33.6966 196.497 32.444 197.28 31.1312C198.062 29.8107 198.451 28.3442 198.412 26.863C198.412 26.6414 198.154 25.0996 197.885 25.0544C197.706 25.0227 197.701 26.4108 197.564 26.5013C196.286 27.5763 195.417 28.9589 195.073 30.4665C194.706 31.9144 194.529 33.3932 194.546 34.8749" fill="#263238" fill-opacity="0.2"/>
<path d="M184.688 45.5184C189.254 46.8748 192.029 41.7565 192.029 41.7565L196.674 29.5487C198.096 26.0582 196.916 22.4365 192.814 21.3107L192.429 21.2248C190.555 20.8117 188.567 21.0202 186.863 21.8087C185.159 22.5971 183.864 23.9077 183.235 25.4794C182.018 28.5133 180.723 31.8727 180.249 33.5411C179.275 36.991 183.119 38.4062 183.119 38.4062C183.119 38.4062 182.856 39.1929 182.503 40.1921C181.713 42.4528 182.34 45.0662 183.382 45.2652L184.688 45.5184Z" fill="#FFA78D"/>
<path d="M183.119 38.4288C184.97 38.8306 186.916 38.7694 188.727 38.2524C188.727 38.2524 186.711 40.4725 182.808 39.2833L183.119 38.4288Z" fill="#FFD7D7"/>
<path d="M183.967 28.4817C183.926 28.6093 183.946 28.7456 184.022 28.8608C184.098 28.9759 184.224 29.0607 184.372 29.0966C184.443 29.1177 184.519 29.1263 184.594 29.122C184.669 29.1177 184.743 29.1005 184.81 29.0714C184.877 29.0423 184.937 29.0019 184.986 28.9527C185.034 28.9034 185.071 28.8463 185.094 28.7846C185.134 28.6569 185.114 28.5206 185.038 28.4055C184.962 28.2903 184.837 28.2056 184.688 28.1697C184.617 28.1486 184.542 28.1399 184.467 28.1442C184.391 28.1486 184.318 28.1658 184.251 28.1949C184.184 28.2239 184.124 28.2643 184.075 28.3136C184.026 28.3628 183.989 28.42 183.967 28.4817Z" fill="#263238" fill-opacity="0.2"/>
<path d="M183.661 27.0981C183.714 27.1795 184.23 26.9986 184.846 27.1343C185.462 27.2699 185.831 27.6361 185.899 27.5864C185.968 27.5367 185.899 27.4327 185.741 27.2654C185.524 27.044 185.231 26.886 184.904 26.8132C184.585 26.7431 184.248 26.7605 183.94 26.863C183.735 26.9625 183.635 27.0619 183.661 27.0981Z" fill="#263238" fill-opacity="0.2"/>
<path d="M189.47 29.9059C189.431 30.0336 189.451 30.1693 189.527 30.2841C189.603 30.399 189.728 30.4839 189.875 30.5208C189.947 30.5419 190.022 30.5506 190.097 30.5462C190.172 30.5419 190.246 30.5247 190.313 30.4956C190.38 30.4665 190.44 30.4262 190.489 30.3769C190.537 30.3277 190.574 30.2705 190.597 30.2088C190.638 30.0817 190.618 29.946 190.544 29.831C190.469 29.7159 190.344 29.6308 190.197 29.5939C190.125 29.5727 190.049 29.564 189.974 29.5683C189.898 29.5726 189.825 29.5898 189.757 29.6188C189.689 29.6479 189.629 29.6882 189.58 29.7375C189.53 29.7868 189.493 29.8441 189.47 29.9059Z" fill="#263238" fill-opacity="0.2"/>
<path d="M189.628 28.6399C189.681 28.7168 190.197 28.5404 190.808 28.6761C191.418 28.8117 191.798 29.1734 191.861 29.1282C191.924 29.083 191.861 28.979 191.703 28.8117C191.489 28.5888 191.197 28.4303 190.871 28.3596C190.552 28.2846 190.213 28.3021 189.907 28.4093C189.702 28.4817 189.602 28.6037 189.628 28.6399Z" fill="#263238" fill-opacity="0.2"/>
<path d="M186.21 32.2118C185.91 32.0559 185.59 31.93 185.257 31.8365C185.104 31.7913 184.962 31.728 184.962 31.6331C184.991 31.4898 185.07 31.3575 185.189 31.2533L185.957 30.349C186.65 29.5731 187.268 28.7506 187.806 27.8893C187.043 28.6155 186.35 29.3926 185.731 30.2134L184.978 31.1493C184.832 31.2904 184.748 31.4713 184.741 31.6602C184.748 31.7136 184.771 31.7648 184.805 31.8095C184.84 31.8543 184.887 31.8914 184.941 31.9179C185.022 31.9552 185.106 31.9855 185.194 32.0084C185.521 32.1129 185.863 32.1812 186.21 32.2118Z" fill="#263238" fill-opacity="0.2"/>
<path d="M187.911 32.9759C187.811 32.9488 187.643 33.523 186.947 33.8034C186.252 34.0837 185.562 33.8667 185.531 33.9435C185.499 34.0204 185.657 34.0927 185.957 34.1651C186.347 34.2548 186.761 34.2244 187.126 34.0792C187.48 33.9389 187.756 33.6859 187.895 33.3738C187.99 33.1432 187.959 33.0031 187.911 32.9759Z" fill="#263238" fill-opacity="0.2"/>
<path d="M190.286 26.5013C190.286 26.6595 190.939 26.7273 191.64 26.9534C192.34 27.1795 192.872 27.4869 193.003 27.3784C193.135 27.2699 193.003 27.1704 192.809 26.976C192.55 26.7339 192.226 26.5493 191.866 26.438C191.508 26.3172 191.121 26.2723 190.739 26.3068C190.46 26.343 190.286 26.4289 190.286 26.5013Z" fill="#263238" fill-opacity="0.2"/>
<path d="M184.441 25.398C184.514 25.5427 184.967 25.5111 185.494 25.6196C186.021 25.7281 186.41 25.9044 186.547 25.8004C186.684 25.6964 186.573 25.6151 186.421 25.4613C186.21 25.2663 185.934 25.132 185.631 25.077C185.331 25.0143 185.016 25.0349 184.73 25.1358C184.493 25.2172 184.409 25.3166 184.441 25.398Z" fill="#263238" fill-opacity="0.2"/>
<path d="M195.589 32.0264C195.663 32.0264 198.549 31.9315 197.759 34.2871C196.969 36.6428 194.41 35.4582 194.425 35.3904C194.441 35.3225 195.589 32.0264 195.589 32.0264Z" fill="#FFA78D"/>
<path d="M195.552 34.6896C195.552 34.6896 195.589 34.7302 195.658 34.78C195.758 34.8472 195.883 34.8809 196.01 34.8749C196.326 34.8749 196.7 34.5268 196.858 34.1108C196.933 33.9125 196.954 33.7023 196.921 33.4959C196.921 33.4166 196.899 33.3385 196.856 33.2684C196.812 33.1983 196.75 33.1383 196.674 33.0935C196.623 33.0685 196.563 33.0589 196.505 33.0663C196.447 33.0736 196.393 33.0975 196.353 33.1342C196.295 33.193 196.3 33.2427 196.284 33.2427C196.268 33.2427 196.237 33.1884 196.284 33.098C196.321 33.0456 196.377 33.0045 196.442 32.9805C196.533 32.9488 196.635 32.9488 196.727 32.9805C196.832 33.0266 196.921 33.0955 196.986 33.1804C197.05 33.2652 197.088 33.3631 197.095 33.4642C197.143 33.6951 197.125 33.9324 197.043 34.156C196.864 34.6082 196.437 34.9925 195.989 34.9925C195.91 34.9922 195.832 34.9766 195.761 34.9468C195.69 34.9171 195.628 34.874 195.579 34.8207C195.552 34.7483 195.552 34.6896 195.552 34.6896Z" fill="#FFD7D7"/>
<path d="M186.331 22.0838C185.968 21.7628 187.706 20.8811 188.933 20.7274C190.781 20.5149 193.404 20.7636 194.778 21.5141C196.426 22.4184 197.659 23.5804 198.075 25.2262C198.443 26.8881 198.292 28.6042 197.638 30.1998C197.485 30.6987 197.182 31.1542 196.758 31.52C196.2 31.936 195.363 32.0717 195.147 32.7906C195.076 33.0544 194.887 33.2835 194.62 33.4281C193.962 33.7536 193.509 33.1704 193.377 32.673C193.098 31.6105 193.414 30.5072 193.725 29.4492C193.9 28.6867 194.219 27.9538 194.668 27.2789C194.936 26.9263 195.278 26.6143 195.526 26.2526C195.661 26.0756 195.75 25.8757 195.786 25.6665C195.822 25.4574 195.805 25.2439 195.737 25.0408C195.696 24.9536 195.645 24.8703 195.584 24.7922C195.306 24.413 194.916 24.104 194.453 23.8967C193.99 23.6894 193.472 23.5912 192.951 23.6121C191.266 23.6844 188.422 23.7025 187.895 23.0831C187.506 22.6871 187.219 22.2248 187.053 21.7266L186.331 22.0838Z" fill="#263238" fill-opacity="0.2"/>
<path d="M194.747 21.175C194.084 20.7589 193.332 20.4596 192.534 20.2943C191.736 20.129 190.907 20.101 190.097 20.212C189.664 20.2639 189.249 20.3904 188.875 20.5839C188.501 20.7774 188.177 21.0338 187.922 21.3378C187.679 21.6488 187.572 22.0233 187.619 22.3955C187.666 22.7676 187.865 23.1135 188.18 23.3724L188.222 23.4131C189.275 24.0461 190.06 24.1049 191.329 24.0597C192.382 24.019 193.435 23.7296 194.489 23.698C195.634 23.6631 196.765 23.9229 197.738 24.444C197.091 23.1483 196.06 22.021 194.747 21.175Z" fill="#263238" fill-opacity="0.2"/>
<path d="M199.038 24.8645C199.007 24.8645 198.87 24.5932 198.512 24.2134C198.312 23.9935 198.084 23.7933 197.832 23.6166C197.526 23.3987 197.166 23.2441 196.779 23.1645C196.074 23.0488 195.344 23.1036 194.673 23.3227C194.146 23.4945 193.872 23.6799 193.851 23.6573C193.83 23.6347 193.909 23.594 194.036 23.5126C194.216 23.395 194.412 23.2964 194.62 23.2187C195.316 22.953 196.09 22.8787 196.837 23.0062C197.249 23.0928 197.63 23.2634 197.948 23.5036C198.207 23.6893 198.434 23.9054 198.622 24.1456C198.819 24.3572 198.961 24.6023 199.038 24.8645Z" fill="#455A64" fill-opacity="0.2"/>
<path d="M199.007 25.7417C198.898 25.9635 198.747 26.1683 198.559 26.3475C198.13 26.7985 197.613 27.1825 197.032 27.4824C196.449 27.7809 195.812 27.9919 195.147 28.1064C194.875 28.1664 194.593 28.1833 194.315 28.1561C195.238 28.0087 196.127 27.7338 196.948 27.3423C197.728 26.9051 198.423 26.3649 199.007 25.7417Z" fill="#455A64" fill-opacity="0.2"/>
<path d="M199.965 26.4108C199.954 26.5031 199.926 26.5931 199.881 26.6776C199.776 26.9134 199.649 27.1417 199.502 27.3603C199.006 28.0812 198.314 28.6879 197.485 29.1282C196.654 29.5656 195.709 29.8189 194.736 29.8652C194.444 29.8877 194.149 29.8877 193.857 29.8652C193.749 29.8607 193.642 29.8424 193.541 29.8109C193.541 29.7793 193.999 29.8109 194.726 29.7703C195.669 29.6923 196.579 29.4306 197.386 29.0051C198.194 28.5797 198.878 28.0017 199.386 27.3151C199.765 26.7726 199.934 26.4018 199.965 26.4108Z" fill="#455A64" fill-opacity="0.2"/>
<path d="M191.734 20.1306C191.469 20.1567 191.201 20.1703 190.934 20.1713C189.653 20.2519 188.433 20.6757 187.448 21.383C187.074 21.6498 186.868 21.8351 186.847 21.8351C186.984 21.6313 187.162 21.4505 187.374 21.3016C188.342 20.5232 189.613 20.0816 190.939 20.0628C191.207 20.0468 191.476 20.0697 191.734 20.1306Z" fill="#455A64" fill-opacity="0.2"/>
<path d="M202.056 23.2368C201.795 23.6895 201.394 24.072 200.897 24.343C200.4 24.614 199.827 24.7631 199.239 24.7741C199.787 24.632 200.316 24.4411 200.818 24.2044C201.268 23.919 201.683 23.5948 202.056 23.2368Z" fill="#455A64" fill-opacity="0.2"/>
<path d="M201.982 47.0195C200.85 44.9532 192.503 41.6525 192.503 41.6525C191.716 42.8157 190.626 43.8063 189.317 44.5462C187.211 45.6721 184.72 45.2697 182.84 44.0534C181.065 42.9005 181.676 40.6488 181.676 40.6488C181.676 40.6488 172.497 40.2509 169.854 41.4898C167.21 42.7286 165.735 46.3593 165.735 46.3593L162.434 52.7888L165.904 57.1474L167.426 58.4134C167.426 58.4134 171.444 61.9266 178.859 63.0253C185.778 64.0517 191.782 61.5242 191.782 61.5242C195.468 60.4617 198.686 57.907 201.645 54.3894C201.656 54.4029 203.299 49.4429 201.982 47.0195Z" fill="#455A64" fill-opacity="0.2"/>
<path d="M165.772 42.6111C165.772 42.6111 167.931 40.2871 168.1 39.3557L168.953 34.3821C168.953 34.3821 168.637 33.8215 167.816 34.459C166.994 35.0965 167.189 36.3218 167.189 36.3218L166.499 37.3708L166.104 36.3535L166.41 32.9624C166.41 32.9624 166.694 30.5253 166.194 30.661C165.693 30.7966 165.351 31.4432 165.225 32.4967C165.098 33.5502 164.951 34.8795 164.951 34.8795C164.951 34.8795 164.872 35.2909 164.661 34.5178C164.451 33.7446 164.909 30.8373 164.867 30.4213C164.824 30.0054 165.093 28.9881 164.414 28.8795C163.734 28.771 163.692 30.1365 163.692 30.1365L162.95 34.4228C162.95 34.4228 162.881 32.6142 162.86 32.2977C162.839 31.9812 162.955 31.0317 162.897 30.4892C162.839 29.9466 162.586 29.5849 162.281 29.5578C162.139 29.5299 161.989 29.55 161.864 29.6139C161.738 29.6779 161.646 29.7808 161.607 29.9014L161.412 33.6768C161.412 33.6768 161.412 35.422 161.349 35.5125C161.286 35.6029 160.822 34.6624 160.822 34.6624L160.675 33.3874C160.675 33.3874 160.78 31.6557 160.285 31.4839C159.79 31.3121 159.664 31.6376 159.664 31.6376L159.506 34.8026L159.916 38.5418L160.906 42.3036L162.518 42.5749L165.772 42.6111Z" fill="#FFA78D"/>
<path d="M161.849 39.7852C162.107 39.5683 162.346 39.3355 162.565 39.0889C163.086 38.5162 163.837 38.1309 164.672 38.0083C165.078 37.9615 165.49 38.0348 165.841 38.2163L165.957 38.2796L166.03 38.1665C166.346 37.6692 166.704 37.2306 166.905 36.9141C167.105 36.5976 167.221 36.3986 167.189 36.3896C167.03 36.5259 166.891 36.6776 166.773 36.8417C166.422 37.2402 166.095 37.6537 165.793 38.0806L165.983 38.0309C165.586 37.8139 165.113 37.7227 164.645 37.7732C164.142 37.8215 163.663 37.9872 163.26 38.2524C162.942 38.4622 162.657 38.707 162.413 38.9804C162.171 39.2178 161.98 39.4903 161.849 39.7852Z" fill="#FFD7D7"/>
<path d="M181.513 40.6533L182.84 38.8673L186.289 42.7558L185.91 44.5056L186.732 42.8236L192.967 39.7038L192.703 41.9374L189.881 45.0752L186.152 46.4045L183.403 45.5229C183.403 45.5229 181.26 44.8537 181.297 44.7045C181.334 44.5553 181.513 40.6533 181.513 40.6533Z" fill="#455A64" fill-opacity="0.2"/>
<path d="M184.536 44.596L184.851 46.0835L186.126 46.3684L187.279 45.2697L186.99 43.972L185.478 43.6103L184.536 44.596Z" fill="#082567" fill-opacity="0.2"/>
<path d="M186.289 42.7558C186.148 43.0014 185.971 43.2308 185.763 43.4385C185.399 43.85 184.878 44.4242 184.267 45.0753L184.135 45.2154L184.046 45.0527C183.888 44.7633 183.719 44.4558 183.519 44.1484C182.993 43.1718 182.513 42.281 182.187 41.63C181.987 41.2869 181.827 40.928 181.708 40.5584C181.975 40.8662 182.203 41.1983 182.387 41.5486C182.761 42.1816 183.261 43.0632 183.793 44.0399L184.293 44.9442L184.067 44.9215C184.694 44.2795 185.241 43.7234 185.647 43.3391C185.833 43.1233 186.049 42.9275 186.289 42.7558Z" fill="#263238" fill-opacity="0.2"/>
<path d="M192.845 41.5395C192.51 41.8696 192.14 42.1723 191.74 42.4438C191.034 42.9909 190.044 43.7369 188.943 44.5463L187.427 45.6631L187.258 45.7851L187.221 45.5998C187.053 44.7859 186.916 44.0941 186.826 43.6013C186.762 43.3443 186.73 43.082 186.731 42.8191C186.852 43.0621 186.935 43.3174 186.979 43.5787C187.111 44.0625 187.279 44.7497 187.469 45.5591L187.263 45.4958L188.764 44.379C189.865 43.5696 190.871 42.8462 191.613 42.3308C191.997 42.0369 192.409 41.7722 192.845 41.5395Z" fill="#263238" fill-opacity="0.2"/>
<path d="M206.237 55.2711L206.911 52.0835C206.118 51.0058 205.168 50.0197 204.083 49.1491C202.953 48.143 201.451 47.5039 199.834 47.3405C197.727 47.1958 195.742 48.1453 194.004 49.1807C192.266 50.2161 190.56 51.3962 188.511 51.8303C187.735 52.038 186.898 51.9995 186.152 51.7217C185.062 51.2425 184.625 50.0443 184.809 49.0089C185.081 47.9791 185.6 47.0092 186.331 46.1604L184.952 45.7942C184.103 46.8031 183.366 47.8778 182.75 49.0044C182.252 50.0032 182.145 51.1138 182.445 52.1694C182.744 52.9385 183.279 53.6243 183.994 54.1548C184.708 54.6854 185.575 55.0413 186.505 55.1852C188.379 55.4532 190.304 55.1544 191.95 54.3396C193.451 53.6524 194.81 52.6622 196.469 52.3186C197.613 52.1131 198.802 52.2096 199.881 52.5953C200.96 52.9811 201.878 53.638 202.514 54.4798L206.237 55.2711Z" fill="#082567" fill-opacity="0.2"/>
<path d="M167.052 58.323C166.978 58.323 167.579 55.574 168.358 52.2101C169.137 48.8461 169.864 46.1287 169.938 46.1423C170.012 46.1559 169.411 48.8913 168.627 52.2553C167.842 55.6192 167.115 58.3547 167.052 58.323Z" fill="#263238" fill-opacity="0.2"/>
<path d="M159.811 42.1996L166.915 42.6518L166.589 56.7179L166.499 57.6855C166.499 57.6855 160.648 52.1829 160.18 47.7384C160.08 46.7934 159.843 46.0428 159.785 45.3782C159.6 42.9005 159.811 42.1996 159.811 42.1996Z" fill="#455A64" fill-opacity="0.2"/>
<path d="M166.478 56.5145C166.451 56.3328 166.451 56.149 166.478 55.9674C166.478 55.5695 166.504 55.0631 166.52 54.4843C166.557 53.2319 166.568 51.4957 166.589 49.5831C166.61 47.6706 166.647 45.9298 166.726 44.6729C166.762 44.0489 166.799 43.538 166.841 43.1898C166.845 43.0065 166.875 42.8242 166.931 42.6473C166.951 42.8292 166.951 43.0124 166.931 43.1944C166.931 43.5922 166.931 44.0986 166.931 44.6819C166.931 45.9886 166.894 47.6932 166.873 49.5831C166.852 51.4731 166.81 53.2364 166.726 54.4889C166.683 55.1173 166.641 55.6237 166.594 55.9764C166.576 56.1586 166.537 56.3389 166.478 56.5145Z" fill="#263238" fill-opacity="0.2"/>
<path d="M160.122 40.2373C160.13 40.2838 160.13 40.3311 160.122 40.3775C160.122 40.4815 160.09 40.6171 160.069 40.7844C160.027 41.1416 159.932 41.6887 159.864 42.3488C159.623 45.6096 160.323 48.8709 161.902 51.8438C163.468 54.774 165.859 57.3238 168.858 59.2635C170.55 60.3433 172.407 61.2181 174.377 61.8633C176.341 62.52 178.406 62.9281 180.507 63.075C182.461 63.2323 184.432 63.1593 186.363 62.858C188.115 62.5988 189.823 62.157 191.45 61.5423C192.189 61.2726 192.911 60.9708 193.614 60.638C194.283 60.3079 194.91 59.9552 195.5 59.6207C196.089 59.2861 196.621 58.9198 197.08 58.5536C197.538 58.1874 198.022 57.8573 198.412 57.5092L199.502 56.528L200.334 55.6463L200.687 55.2711L200.971 54.9229L201.408 54.3758L201.687 54.0412C201.716 54.0009 201.75 53.9631 201.787 53.9282C201.787 53.9282 201.787 53.9734 201.708 54.0548L201.456 54.3984L201.034 54.9636L200.766 55.3208C200.655 55.4384 200.539 55.5695 200.418 55.7051L199.597 56.6094L198.544 57.6041C198.154 57.9613 197.68 58.2914 197.211 58.6712C196.742 59.051 196.158 59.3765 195.631 59.7608C195.105 60.1451 194.415 60.4616 193.741 60.8008C193.035 61.1477 192.307 61.4602 191.561 61.7367C186.089 63.8116 179.883 63.9433 174.298 62.1029C172.297 61.446 170.411 60.5544 168.695 59.4534C165.664 57.4884 163.255 54.9015 161.691 51.9297C160.115 48.9224 159.445 45.6231 159.743 42.3353C159.827 41.6571 159.943 41.1326 160.001 40.7754L160.074 40.3685C160.085 40.3235 160.101 40.2795 160.122 40.2373Z" fill="#263238" fill-opacity="0.2"/>
<path d="M204.31 48.8959C204.33 48.6621 204.376 48.4305 204.447 48.2041C204.563 47.7519 204.689 47.1144 204.805 46.3187C205.095 44.2318 205.002 42.1188 204.531 40.0565C204.263 38.9249 203.89 37.8136 203.415 36.7332C203.011 35.8551 202.541 35.0002 202.009 34.1741C201.793 33.8169 201.561 33.5095 201.366 33.2382C201.171 32.9669 200.997 32.7318 200.839 32.5464C200.677 32.3571 200.531 32.1576 200.402 31.9496C200.596 32.1165 200.773 32.2981 200.929 32.4922C201.129 32.708 201.315 32.9329 201.487 33.1658C201.698 33.4326 201.94 33.7355 202.172 34.0701C202.734 34.8909 203.225 35.7463 203.641 36.6293C204.139 37.7185 204.526 38.8425 204.8 39.9887C205.277 42.0744 205.343 44.2142 204.994 46.3187C204.891 46.953 204.741 47.5811 204.547 48.1996C204.492 48.4373 204.413 48.6703 204.31 48.8959Z" fill="#263238" fill-opacity="0.2"/>
<path d="M181.981 24.331C181.731 24.3794 181.475 24.4051 181.218 24.4078C180.97 24.4078 180.691 24.444 180.323 24.4847C179.954 24.5254 179.575 24.5525 179.143 24.6249C178.124 24.7654 177.116 24.9617 176.126 25.2127C174.917 25.528 173.737 25.9209 172.597 26.3882C171.465 26.8677 170.376 27.4178 169.337 28.034C168.495 28.5458 167.691 29.1031 166.931 29.7024C166.594 29.9511 166.32 30.1998 166.067 30.4078C165.814 30.6158 165.609 30.8102 165.446 30.9639C165.286 31.1278 165.11 31.2791 164.919 31.416C165.056 31.2273 165.212 31.0502 165.388 30.887C165.541 30.7197 165.735 30.5208 165.978 30.2993C166.22 30.0777 166.504 29.82 166.815 29.5623C167.567 28.9415 168.367 28.3659 169.211 27.8396C171.284 26.5562 173.6 25.5909 176.057 24.9866C177.06 24.743 178.083 24.5617 179.117 24.444C179.559 24.3807 179.959 24.3671 180.312 24.3355C180.665 24.3038 180.965 24.2993 181.218 24.2993C181.473 24.2926 181.728 24.3032 181.981 24.331Z" fill="#263238" fill-opacity="0.2"/>
<path d="M179.285 63.2288C179.212 63.2288 179.98 60.9364 180.997 58.1512C182.013 55.366 182.898 53.1234 182.972 53.1415C183.045 53.1596 182.276 55.4338 181.26 58.219C180.244 61.0042 179.354 63.2468 179.285 63.2288Z" fill="#263238" fill-opacity="0.2"/>
<path d="M202.166 19.9995C202.166 19.9995 202.166 20.0447 202.166 20.1306C202.129 20.2572 202.065 20.3768 201.977 20.4833C201.816 20.6852 201.598 20.848 201.342 20.9558C201.086 21.0636 200.802 21.1126 200.518 21.0982C200.129 21.0539 199.764 20.9141 199.465 20.6958C199.161 20.4624 198.78 20.3169 198.375 20.2798C197.928 20.278 197.494 20.4054 197.143 20.6415C196.756 20.9103 196.402 21.2134 196.089 21.5458C195.439 22.1941 194.673 22.7496 193.82 23.1916C193.113 23.5481 192.324 23.7672 191.508 23.8336C190.959 23.875 190.407 23.8243 189.881 23.6844C189.692 23.6394 189.513 23.5659 189.354 23.4674C190.047 23.6584 190.778 23.7261 191.503 23.6663C192.285 23.5822 193.037 23.3556 193.709 23.0017C194.53 22.562 195.269 22.0177 195.9 21.3875C196.23 21.053 196.6 20.7499 197.006 20.4833C197.409 20.2191 197.905 20.0804 198.412 20.0899C198.862 20.1356 199.284 20.3017 199.618 20.5646C199.882 20.7694 200.209 20.9058 200.56 20.958C200.812 20.966 201.063 20.9222 201.291 20.8302C201.519 20.7381 201.718 20.6006 201.872 20.429C201.987 20.2948 202.085 20.1509 202.166 19.9995Z" fill="#263238" fill-opacity="0.2"/>
<path d="M202.114 23.3046C202.114 23.3046 202.24 23.3046 202.451 23.3543C202.757 23.4254 203.048 23.5367 203.315 23.6844C203.524 23.7975 203.697 23.9542 203.818 24.1399C203.938 24.3256 204.003 24.5343 204.004 24.7469C203.962 25.0016 203.855 25.2453 203.691 25.4608C203.527 25.6764 203.311 25.8586 203.057 25.9949C202.573 26.2821 202.001 26.4395 201.414 26.447C200.935 26.4476 200.464 26.345 200.044 26.1486C199.767 26.0188 199.519 25.8473 199.312 25.6422C199.17 25.493 199.117 25.398 199.128 25.389C199.434 25.6255 199.772 25.8304 200.134 25.9994C200.532 26.1602 200.968 26.2391 201.408 26.23C201.943 26.2043 202.459 26.0474 202.893 25.7778C203.115 25.6597 203.305 25.5035 203.453 25.3191C203.601 25.1347 203.702 24.926 203.752 24.7063C203.751 24.5284 203.701 24.3533 203.604 24.1959C203.508 24.0384 203.369 23.9033 203.199 23.802C202.954 23.6508 202.691 23.5235 202.414 23.4222C202.219 23.3679 202.109 23.3182 202.114 23.3046Z" fill="#263238" fill-opacity="0.2"/>
<path d="M184.894 109.944C184.894 110.007 173.772 107.127 160.106 103.519C146.44 99.9111 135.355 96.9315 135.397 96.8682C135.439 96.8049 146.519 99.685 160.19 103.293C173.861 106.901 184.915 109.867 184.894 109.944Z" fill="#263238" fill-opacity="0.2"/>
<path d="M183.967 111.793C183.967 111.857 172.845 108.981 159.179 105.373C145.514 101.765 134.465 98.7852 134.465 98.7219C134.465 98.6586 145.582 101.534 159.253 105.147C172.924 108.759 183.998 111.735 183.967 111.793Z" fill="#263238" fill-opacity="0.2"/>
<path d="M183.277 113.823C183.277 113.882 172.155 111.007 158.489 107.399C144.824 103.79 133.739 100.811 133.781 100.748C133.823 100.684 144.897 103.56 158.568 107.172C172.239 110.785 183.298 113.76 183.277 113.823Z" fill="#263238" fill-opacity="0.2"/>
<path d="M182.576 115.849C182.576 115.912 171.454 113.032 157.789 109.424C144.123 105.816 133.038 102.836 133.08 102.773C133.122 102.71 144.202 105.59 157.873 109.198C171.544 112.806 182.598 115.786 182.576 115.849Z" fill="#263238" fill-opacity="0.2"/>
<path d="M181.86 117.875C181.834 117.938 170.738 115.062 157.073 111.45C143.407 107.837 132.322 104.862 132.364 104.803C132.406 104.744 143.502 107.607 157.173 111.224C170.844 114.841 181.903 117.811 181.86 117.875Z" fill="#263238" fill-opacity="0.2"/>
<path d="M171.228 74.148C171.226 74.252 171.208 74.3553 171.175 74.4554C171.144 74.6634 171.038 74.9483 170.923 75.3281C170.686 76.0786 170.317 77.1367 169.843 78.4931C168.895 81.1562 167.537 84.8231 166.015 88.8471C164.493 92.8712 163.076 96.5335 162.044 99.165C161.517 100.463 161.112 101.521 160.806 102.28C160.664 102.628 160.543 102.909 160.454 103.126C160.42 103.226 160.374 103.323 160.317 103.415C160.332 103.31 160.36 103.207 160.401 103.108L160.706 102.253C160.985 101.485 161.38 100.417 161.86 99.1153L165.751 88.7748C167.273 84.7553 168.648 81.0884 169.653 78.4433C170.143 77.1412 170.538 76.0741 170.823 75.31C170.949 74.9392 171.07 74.6499 171.123 74.4554C171.151 74.3513 171.186 74.2487 171.228 74.148Z" fill="#E0E0E0"/>
<path d="M186.289 46.2418C186.289 46.3051 185.931 46.2915 185.526 46.2101C185.12 46.1287 184.804 46.0112 184.82 45.9479C184.836 45.8846 185.178 45.8981 185.589 45.9795C186 46.0609 186.305 46.1785 186.289 46.2418Z" fill="#263238" fill-opacity="0.2"/>
<path d="M196.105 80.8171C196.079 80.8759 184.983 77.946 171.318 74.2701C157.652 70.5942 146.567 67.5648 146.609 67.488C146.651 67.4111 157.726 70.3545 171.397 74.0304C185.067 77.7064 196.126 80.7538 196.105 80.8171Z" fill="#EBEBEB"/>
<path d="M167.642 96.0272C167.753 95.963 167.882 95.927 168.016 95.9232C168.385 95.8913 168.755 95.9661 169.069 96.1357C169.31 96.2571 169.509 96.4311 169.645 96.64C169.782 96.8489 169.852 97.0852 169.848 97.3248C169.854 97.623 169.752 97.9153 169.556 98.1618C169.361 98.4083 169.081 98.5969 168.756 98.7018C168.431 98.8067 168.076 98.8228 167.74 98.7479C167.404 98.673 167.103 98.5108 166.878 98.2833C166.687 98.1033 166.556 97.8823 166.498 97.6436C166.441 97.4049 166.459 97.1573 166.552 96.9269C166.656 96.6245 166.877 96.3614 167.178 96.1809C167.281 96.1054 167.408 96.0582 167.542 96.0452C167.542 96.0452 167.421 96.1131 167.247 96.2532C166.99 96.4411 166.806 96.692 166.72 96.9721C166.655 97.1708 166.651 97.3805 166.709 97.5809C166.766 97.7813 166.882 97.9657 167.047 98.1161C167.24 98.307 167.496 98.4427 167.781 98.505C168.066 98.5673 168.367 98.5532 168.643 98.4647C168.918 98.3761 169.156 98.2173 169.323 98.0095C169.491 97.8017 169.58 97.5549 169.58 97.3022C169.589 97.0961 169.535 96.8915 169.424 96.7085C169.313 96.5254 169.149 96.3701 168.948 96.2577C168.674 96.094 168.349 96.0043 168.016 96C167.763 96.0136 167.642 96.0498 167.642 96.0272Z" fill="#E0E0E0"/>
<path d="M172.344 83.9143C172.455 83.849 172.585 83.8128 172.718 83.8103C173.087 83.7794 173.457 83.8541 173.772 84.0228C174.011 84.1447 174.209 84.319 174.345 84.5278C174.481 84.7367 174.55 84.9727 174.546 85.2119C174.551 85.5101 174.449 85.8024 174.254 86.0489C174.058 86.2954 173.779 86.484 173.454 86.5889C173.129 86.6938 172.774 86.7099 172.437 86.635C172.101 86.5601 171.8 86.3979 171.576 86.1704C171.384 85.9904 171.253 85.7694 171.196 85.5307C171.138 85.292 171.157 85.0444 171.249 84.814C171.357 84.5253 171.569 84.2735 171.855 84.0951C171.958 84.022 172.085 83.9764 172.218 83.964C172.218 83.964 172.102 84.0318 171.923 84.1675C171.667 84.358 171.484 84.61 171.397 84.8909C171.329 85.0891 171.324 85.2989 171.38 85.4995C171.436 85.7001 171.553 85.8847 171.718 86.0348C171.919 86.2107 172.173 86.3361 172.451 86.3975C172.73 86.4588 173.022 86.4538 173.298 86.3829C173.567 86.2851 173.798 86.1234 173.964 85.9168C174.13 85.7102 174.224 85.4673 174.235 85.2164C174.245 85.0112 174.192 84.8074 174.083 84.625C173.973 84.4426 173.809 84.288 173.608 84.1765C173.332 84.0137 173.006 83.9227 172.671 83.9143C172.487 83.9007 172.35 83.9369 172.344 83.9143Z" fill="#E0E0E0"/>
<path d="M164.846 64.3501C164.956 64.286 165.086 64.2499 165.219 64.2461C165.588 64.2142 165.959 64.289 166.273 64.4586C166.513 64.58 166.712 64.754 166.849 64.9629C166.986 65.1718 167.056 65.4081 167.052 65.6477C167.058 65.9459 166.956 66.2382 166.76 66.4847C166.565 66.7312 166.285 66.9198 165.96 67.0247C165.635 67.1297 165.28 67.1458 164.944 67.0709C164.608 66.996 164.307 66.8337 164.082 66.6063C163.891 66.4262 163.759 66.2052 163.702 65.9665C163.644 65.7279 163.663 65.4803 163.755 65.2499C163.86 64.9474 164.081 64.6844 164.382 64.5038C164.485 64.4284 164.611 64.3811 164.746 64.3682C164.746 64.3682 164.63 64.436 164.451 64.5716C164.195 64.7624 164.012 65.0143 163.924 65.2951C163.859 65.4937 163.855 65.7034 163.912 65.9038C163.969 66.1043 164.086 66.2886 164.25 66.439C164.443 66.6299 164.7 66.7656 164.985 66.8279C165.27 66.8902 165.571 66.8762 165.846 66.7876C166.122 66.699 166.359 66.5402 166.527 66.3324C166.695 66.1246 166.784 65.8778 166.784 65.6251C166.792 65.419 166.739 65.2144 166.628 65.0314C166.517 64.8483 166.353 64.6931 166.152 64.5807C165.878 64.417 165.553 64.3272 165.219 64.323C165.009 64.3365 164.851 64.3727 164.846 64.3501Z" fill="#E0E0E0"/>
<path d="M164.024 55.2756C164.092 55.2756 162.871 58.7525 161.296 62.9982C159.722 67.2438 158.379 70.6846 158.305 70.6529C158.231 70.6213 159.453 67.1759 161.033 62.9258C162.613 58.6757 163.955 55.2575 164.024 55.2756Z" fill="#EBEBEB"/>
<g opacity="0.3">
<path opacity="0.3" d="M136.272 94.4944C136.272 94.4944 143.449 76.3318 146.198 67.3659C142.57 71.0915 138.478 75.3688 136.345 79.8631C134.199 84.5621 134.173 89.7796 136.272 94.4944Z" fill="#272830"/>
</g>
<path d="M144.129 142.761C143.447 142.894 142.853 143.252 142.475 143.757C142.097 144.263 141.965 144.876 142.108 145.463C142.251 146.051 142.657 146.568 143.238 146.902C143.82 147.235 144.531 147.36 145.218 147.248C145.906 147.136 146.514 146.798 146.914 146.304C147.313 145.811 147.471 145.203 147.354 144.611C147.237 144.019 146.854 143.49 146.287 143.138C145.72 142.786 145.015 142.639 144.323 142.729" fill="#082567" fill-opacity="0.2"/>
<defs>
<linearGradient id="paint0_linear_9_109" x1="138" y1="137.5" x2="55" y2="184" gradientUnits="userSpaceOnUse">
<stop stop-color="#96E7E5"/>
<stop offset="1" stop-color="#96E7E5" stop-opacity="0"/>
</linearGradient>
<linearGradient id="paint1_linear_9_109" x1="128" y1="126" x2="22" y2="188" gradientUnits="userSpaceOnUse">
<stop stop-color="#96E7E5"/>
<stop offset="1" stop-color="#96E7E5" stop-opacity="0"/>
</linearGradient>
</defs>
</svg>
