<svg width="21" height="20" viewBox="0 0 21 20" fill="#000000" xmlns="http://www.w3.org/2000/svg">
<path fill-rule="evenodd" clip-rule="evenodd" d="M4.75916 11.1359C8.83413 11.1359 9.0154 12.5179 9.0154 15.3921C9.0154 16.8322 9.0154 17.8567 8.41051 18.6068C7.71449 19.4711 6.44764 19.6483 4.75916 19.6483C3.07069 19.6483 1.80384 19.4711 1.10782 18.6068C0.50293 17.8567 0.50293 16.8332 0.50293 15.4171L1.25403 15.3921H0.50293C0.50293 12.5179 0.684195 11.1359 4.75916 11.1359ZM15.7753 11.1359C19.8503 11.1359 20.0315 12.5179 20.0315 15.3921C20.0315 16.8322 20.0315 17.8567 19.4266 18.6068C18.7306 19.4711 17.4638 19.6483 15.7753 19.6483C14.0868 19.6483 12.82 19.4711 12.124 18.6068C11.5191 17.8567 11.5191 16.8332 11.5191 15.4171L12.2702 15.3921H11.5191C11.5191 12.5179 11.7003 11.1359 15.7753 11.1359ZM4.96563 12.6385L4.75916 12.6381C2.14636 12.6381 2.01237 12.8255 2.0055 15.0186L2.00592 15.873C2.01067 16.7452 2.0439 17.3753 2.27653 17.6654C2.54192 17.9939 3.33007 18.1461 4.75916 18.1461C6.18826 18.1461 6.97641 17.9929 7.2418 17.6644C7.5132 17.3269 7.5132 16.5258 7.5132 15.4161C7.5132 12.9123 7.5132 12.6503 4.96563 12.6385ZM15.9818 12.6385L15.7753 12.6381C13.1625 12.6381 13.0285 12.8255 13.0216 15.0186L13.0221 15.873C13.0268 16.7452 13.06 17.3753 13.2927 17.6654C13.5581 17.9939 14.3462 18.1461 15.7753 18.1461C17.2044 18.1461 17.9925 17.9929 18.2579 17.6644C18.5293 17.3269 18.5293 16.5258 18.5293 15.4161C18.5293 12.9123 18.5293 12.6503 15.9818 12.6385ZM4.75916 0.11972C8.83413 0.11972 9.0154 1.50175 9.0154 4.37596C9.0154 5.81606 9.0154 6.84057 8.41051 7.59066C7.71449 8.45493 6.44764 8.63219 4.75916 8.63219C3.07069 8.63219 1.80384 8.45493 1.10782 7.59066C0.50293 6.84057 0.50293 5.81707 0.50293 4.40099L1.25403 4.37596H0.50293C0.50293 1.50175 0.684195 0.11972 4.75916 0.11972ZM15.7753 0.11972C19.8503 0.11972 20.0315 1.50175 20.0315 4.37596C20.0315 5.81606 20.0315 6.84057 19.4266 7.59066C18.7306 8.45493 17.4638 8.63219 15.7753 8.63219C14.0868 8.63219 12.82 8.45493 12.124 7.59066C11.5191 6.84057 11.5191 5.81707 11.5191 4.40099L12.2702 4.37596H11.5191C11.5191 1.50175 11.7003 0.11972 15.7753 0.11972ZM4.96563 1.62237L4.75916 1.62192C2.14636 1.62192 2.01237 1.80941 2.0055 4.00246L2.00592 4.85684C2.01067 5.72908 2.0439 6.35915 2.27653 6.64929C2.54192 6.97777 3.33007 7.12999 4.75916 7.12999C6.18826 7.12999 6.97641 6.97676 7.2418 6.64828C7.5132 6.31079 7.5132 5.50962 7.5132 4.39999C7.5132 1.89612 7.5132 1.63416 4.96563 1.62237ZM15.9818 1.62237L15.7753 1.62192C13.1625 1.62192 13.0285 1.80941 13.0216 4.00246L13.0221 4.85684C13.0268 5.72908 13.06 6.35915 13.2927 6.64929C13.5581 6.97777 14.3462 7.12999 15.7753 7.12999C17.2044 7.12999 17.9925 6.97676 18.2579 6.64828C18.5293 6.31079 18.5293 5.50962 18.5293 4.39999C18.5293 1.89612 18.5293 1.63416 15.9818 1.62237Z" fill="#373B5C"/>
</svg>
