<svg width="20.03" height="20.57" viewBox="0 0 22 21" fill="#000000" xmlns="http://www.w3.org/2000/svg">
<path fill-rule="evenodd" clip-rule="evenodd" d="M9.78979 0.485321C12.2394 0.485321 14.2323 2.47824 14.2323 4.92783V5.8612C14.2323 6.2758 13.8958 6.6123 13.4812 6.6123C13.0666 6.6123 12.7301 6.2758 12.7301 5.8612V4.92783C12.7301 3.30545 11.4112 1.98752 9.78979 1.98752H4.90764C3.28827 1.98752 1.97034 3.30545 1.97034 4.92783V16.0732C1.97034 17.6945 3.28827 19.0125 4.90764 19.0125H9.80081C11.4152 19.0125 12.7301 17.6985 12.7301 16.0842V15.1398C12.7301 14.7252 13.0666 14.3887 13.4812 14.3887C13.8958 14.3887 14.2323 14.7252 14.2323 15.1398V16.0842C14.2323 18.5278 12.2434 20.5147 9.80081 20.5147H4.90764C2.46006 20.5147 0.46814 18.5227 0.46814 16.0732V4.92783C0.46814 2.47824 2.46006 0.485321 4.90764 0.485321H9.78979ZM17.8817 7.04894L20.814 9.96821C20.8402 9.99417 20.8636 10.0212 20.8851 10.0497L20.814 9.96821C20.8495 10.0032 20.8811 10.0414 20.9085 10.0822C20.9205 10.1007 20.9321 10.1197 20.9429 10.1394C20.9516 10.1547 20.9597 10.1707 20.9671 10.187C20.9735 10.2014 20.9795 10.2158 20.9852 10.2304C20.9927 10.2494 20.9993 10.269 21.0051 10.2888C21.0095 10.3044 21.0135 10.32 21.017 10.3358C21.0215 10.3549 21.025 10.3741 21.0278 10.3935C21.0294 10.4061 21.0309 10.4193 21.0321 10.4327C21.0344 10.4555 21.0354 10.4777 21.0354 10.5L21.0303 10.5621L21.0282 10.6019C21.028 10.6036 21.0277 10.6053 21.0275 10.607L21.0354 10.5C21.0354 10.5556 21.0292 10.6106 21.0172 10.6642C21.0135 10.68 21.0095 10.6956 21.005 10.711C20.9993 10.731 20.9927 10.7506 20.9853 10.7698C20.9795 10.7842 20.9735 10.7986 20.967 10.8128C20.9597 10.8293 20.9516 10.8453 20.943 10.861C20.9321 10.8802 20.9205 10.8993 20.9081 10.9178C20.9011 10.9288 20.8933 10.9397 20.8853 10.9503C20.8615 10.9817 20.8355 11.0112 20.8074 11.0385L17.8817 13.952C17.7355 14.0983 17.5433 14.1714 17.352 14.1714C17.1597 14.1714 16.9664 14.0983 16.8202 13.95C16.5278 13.6556 16.5288 13.1809 16.8222 12.8885L18.4645 11.2511H8.2253C7.8107 11.2511 7.4742 10.9146 7.4742 10.5C7.4742 10.0854 7.8107 9.74889 8.2253 9.74889H18.4665L16.8222 8.11249C16.5288 7.82007 16.5268 7.34537 16.8202 7.05094C17.1126 6.75651 17.5873 6.75651 17.8817 7.04894Z" fill="black"/>
</svg>
