<svg width="23" height="22" viewBox="0 0 23 22" fill="#373B5C;" xmlns="http://www.w3.org/2000/svg">
<path fill-rule="evenodd" clip-rule="evenodd" d="M11.2657 0.11879C14.1429 0.11879 16.8468 1.23743 18.8778 3.2694C23.076 7.46755 23.076 14.2976 18.8778 18.4957C16.8198 20.5547 14.0487 21.6443 11.2416 21.6443C9.71139 21.6443 8.17114 21.3208 6.73003 20.6539C6.3054 20.4836 5.90782 20.3234 5.6224 20.3234C5.29392 20.3254 4.85228 20.4776 4.42565 20.6248C3.55037 20.9253 2.46077 21.2998 1.65459 20.4966C0.851415 19.6925 1.22196 18.6059 1.52039 17.7316C1.66761 17.301 1.81883 16.8563 1.81883 16.5198C1.81883 16.2434 1.68564 15.8909 1.48134 15.3831C-0.39441 11.3322 0.47286 6.45006 3.65452 3.27041C5.6855 1.23843 8.38845 0.11879 11.2657 0.11879ZM11.2667 1.62099C8.79004 1.62099 6.46364 2.5844 4.71608 4.33296C1.97806 7.06897 1.23297 11.2701 2.86036 14.7883C3.0947 15.3681 3.32103 15.933 3.32103 16.5198C3.32103 17.1057 3.11974 17.6955 2.94248 18.2163C2.79626 18.6449 2.57494 19.2919 2.71715 19.4341C2.85635 19.5783 3.5073 19.351 3.93693 19.2037C4.45269 19.0275 5.03755 18.8252 5.6174 18.8212C6.19825 18.8212 6.74605 19.0415 7.3259 19.2749C10.8781 20.9173 15.0793 20.1702 17.8163 17.4342C21.4276 13.8209 21.4276 7.94325 17.8163 4.33196C16.0677 2.5834 13.7423 1.62099 11.2667 1.62099ZM15.2194 10.2964C15.7722 10.2964 16.2208 10.7441 16.2208 11.2979C16.2208 11.8517 15.7722 12.2993 15.2194 12.2993C14.6666 12.2993 14.2139 11.8517 14.2139 11.2979C14.2139 10.7441 14.6575 10.2964 15.2103 10.2964H15.2194ZM11.2047 10.2964C11.7575 10.2964 12.2061 10.7441 12.2061 11.2979C12.2061 11.8517 11.7575 12.2993 11.2047 12.2993C10.6519 12.2993 10.1992 11.8517 10.1992 11.2979C10.1992 10.7441 10.6419 10.2964 11.1957 10.2964H11.2047ZM7.1896 10.2964C7.74241 10.2964 8.19107 10.7441 8.19107 11.2979C8.19107 11.8517 7.74241 12.2993 7.1896 12.2993C6.63679 12.2993 6.18413 11.8517 6.18413 11.2979C6.18413 10.7441 6.62778 10.2964 7.18059 10.2964H7.1896Z" fill="#373B5C" fill-opacity="1"/>
</svg>
