<svg width="22" height="20" viewBox="0 0 22 20" fill="#373B5C;" xmlns="http://www.w3.org/2000/svg">
<path fill-rule="evenodd" clip-rule="evenodd" d="M15.166 0.120941C18.4779 0.120941 21.1718 2.81489 21.1718 6.12774V13.3153C21.1718 16.6271 18.4779 19.3221 15.166 19.3221H6.50936C3.19751 19.3221 0.502563 16.6271 0.502563 13.3153V6.12774C0.502563 2.81489 3.19751 0.120941 6.50936 0.120941H15.166ZM15.166 1.62314H6.50936C4.02572 1.62314 2.00476 3.6441 2.00476 6.12774V13.3153C2.00476 15.7989 4.02572 17.8199 6.50936 17.8199H15.166C17.6497 17.8199 19.6696 15.7989 19.6696 13.3153V13.0349L16.3669 13.0355C14.4671 13.0355 12.9209 11.4902 12.9199 9.59141C12.9199 7.69063 14.4661 6.14436 16.3669 6.14336L19.6696 6.14276V6.12774C19.6696 3.6441 17.6497 1.62314 15.166 1.62314ZM19.6696 7.64496L16.3669 7.64556C15.2943 7.64656 14.4221 8.51884 14.4221 9.59041C14.4221 10.661 15.2953 11.5333 16.3669 11.5333L19.6696 11.5327V7.64496ZM16.8252 8.77722C17.2398 8.77722 17.5763 9.11371 17.5763 9.52832C17.5763 9.94293 17.2398 10.2794 16.8252 10.2794H16.5127C16.0981 10.2794 15.7616 9.94293 15.7616 9.52832C15.7616 9.11371 16.0981 8.77722 16.5127 8.77722H16.8252ZM11.2032 4.6657C11.6178 4.6657 11.9543 5.00219 11.9543 5.4168C11.9543 5.83141 11.6178 6.1679 11.2032 6.1679H5.79632C5.38171 6.1679 5.04522 5.83141 5.04522 5.4168C5.04522 5.00219 5.38171 4.6657 5.79632 4.6657H11.2032Z" fill="#373B5C" fill-opacity="1"/>
</svg>
